<svg width="18" height="18" viewBox="0 0 18 18" fill="none" xmlns="http://www.w3.org/2000/svg">
<path d="M9 11.4667L9.51675 10.95L7.94175 9.375H11.625V8.625H7.94175L9.51675 7.05L9 6.53325L6.53325 9L9 11.4667ZM9.00225 15.75C8.06875 15.75 7.19125 15.573 6.36975 15.219C5.54825 14.8645 4.8335 14.3835 4.2255 13.776C3.6175 13.1685 3.13625 12.4545 2.78175 11.634C2.42725 10.8135 2.25 9.93625 2.25 9.00225C2.25 8.06825 2.42725 7.19075 2.78175 6.36975C3.13575 5.54825 3.616 4.8335 4.2225 4.2255C4.829 3.6175 5.54325 3.13625 6.36525 2.78175C7.18725 2.42725 8.06475 2.25 8.99775 2.25C9.93075 2.25 10.8083 2.42725 11.6302 2.78175C12.4517 3.13575 13.1665 3.61625 13.7745 4.22325C14.3825 4.83025 14.8638 5.5445 15.2183 6.366C15.5728 7.1875 15.75 8.06475 15.75 8.99775C15.75 9.93075 15.573 10.8083 15.219 11.6302C14.865 12.4522 14.384 13.167 13.776 13.7745C13.168 14.382 12.454 14.8633 11.634 15.2183C10.814 15.5732 9.93675 15.7505 9.00225 15.75ZM9 15C10.675 15 12.0937 14.4187 13.2562 13.2562C14.4187 12.0937 15 10.675 15 9C15 7.325 14.4187 5.90625 13.2562 4.74375C12.0937 3.58125 10.675 3 9 3C7.325 3 5.90625 3.58125 4.74375 4.74375C3.58125 5.90625 3 7.325 3 9C3 10.675 3.58125 12.0937 4.74375 13.2562C5.90625 14.4187 7.325 15 9 15Z" fill="#402108"/>
</svg>
