<svg width="18" height="18" viewBox="0 0 18 18" fill="none" xmlns="http://www.w3.org/2000/svg">
<path d="M6 12H11.4472C14.8132 12 15.3247 9.885 15.9457 6.8025C16.125 5.91225 16.2143 5.4675 15.999 5.17125C15.7838 4.875 15.3712 4.875 14.5455 4.875H4.5" stroke="white" stroke-width="0.75" stroke-linecap="round" stroke-linejoin="round"/>
<path d="M6 12L4.03425 2.63625C3.95314 2.31174 3.76588 2.02365 3.50225 1.81778C3.23862 1.6119 2.91374 1.50005 2.57925 1.5H1.875M6.66 12H6.35175C5.32875 12 4.5 12.8632 4.5 13.9282C4.4991 13.9696 4.50637 14.0108 4.52138 14.0493C4.53638 14.0879 4.55884 14.1231 4.58747 14.153C4.61609 14.1829 4.65032 14.2068 4.68821 14.2235C4.72609 14.2401 4.76688 14.2491 4.80825 14.25H13.125" stroke="white" stroke-width="0.75" stroke-linecap="round" stroke-linejoin="round"/>
<path d="M7.875 16.5C8.49632 16.5 9 15.9963 9 15.375C9 14.7537 8.49632 14.25 7.875 14.25C7.25368 14.25 6.75 14.7537 6.75 15.375C6.75 15.9963 7.25368 16.5 7.875 16.5Z" stroke="white" stroke-width="0.75" stroke-linecap="round" stroke-linejoin="round"/>
<path d="M13.125 16.5C13.7463 16.5 14.25 15.9963 14.25 15.375C14.25 14.7537 13.7463 14.25 13.125 14.25C12.5037 14.25 12 14.7537 12 15.375C12 15.9963 12.5037 16.5 13.125 16.5Z" stroke="white" stroke-width="0.75" stroke-linecap="round" stroke-linejoin="round"/>
</svg>
