<svg width="150" height="28" viewBox="0 0 150 28" fill="none" xmlns="http://www.w3.org/2000/svg">
<path d="M65.9226 4.72731H56.8138V23.3445H61.4281V17.7961V16.5232C61.4281 16.5232 68.0105 16.8936 69.8671 14.3785C71.2528 12.7574 71.3317 10.1726 70.76 8.16998C70.0032 5.89436 68.3454 4.72452 65.9198 4.72731H65.9226ZM66.4452 13.1139C65.3645 14.4175 62.9852 14.4008 61.4009 14.2893L61.4172 6.82466C61.4172 6.82466 65.5169 6.23974 66.5977 8.14491C67.2211 9.28411 67.3681 11.8494 66.4425 13.1167L66.4452 13.1139ZM27.2527 26.3805C25.6003 25.751 23.2292 23.8737 21.8626 22.1551C20.0958 20.0912 15.8681 14.2699 15.8681 14.2699C13.693 11.3982 10.7829 6.6269 7.90548 4.22316V23.3055H10.4753V13.6738C12.2829 16.033 14.4035 19.0495 15.9906 20.9546C16.6903 21.8097 18.4951 23.8096 19.0069 24.2497C22.3145 27.5503 28.3879 29.0293 33.454 27.2189V27.0378C31.7118 27.4194 29.4659 27.2801 27.2554 26.3777L27.2527 26.3805ZM11.5887 5.8498C13.3555 7.91373 17.5832 13.7351 17.5832 13.7351C19.7583 16.6067 22.6684 21.378 25.5458 23.7818V4.69945H22.976V14.3311C21.1684 11.972 19.0477 8.95544 17.4607 7.05027C16.761 6.19518 14.9562 4.19531 14.4444 3.75523C11.1395 0.451825 5.06615 -1.02997 0 0.780494V0.96154C1.74225 0.57995 3.98813 0.719217 6.20134 1.62166C7.85376 2.25115 10.2249 4.12846 11.5914 5.84701L11.5887 5.8498ZM40.5809 6.81074L40.5945 4.72731H28.1347V23.3445H40.5945L40.5809 21.261C38.1935 21.3223 35.199 21.7095 32.7435 21.4644V14.7796C34.7335 14.6709 37.1509 14.7071 38.9993 14.8826V12.6739C37.1182 12.919 34.7498 12.8995 32.7435 12.7713V6.62133C35.199 6.3623 38.1962 6.76338 40.5809 6.81074ZM53.4627 14.2977C51.3584 12.4315 48.8022 11.8466 47 10.5821C45.7342 9.58492 45.9302 8.29532 46.5699 7.59898C48.0862 5.86929 51.2495 6.68539 51.9845 6.86087C52.9155 7.14219 53.4164 7.44022 54.3066 7.84688V5.51277C50.5335 4.3875 44.4955 3.31236 42.1136 7.1979C41.237 8.79668 41.011 11.6962 43.5291 13.3813C46.069 15.448 50.2395 16.4368 50.7568 18.1053C51.0753 19.0161 50.6914 19.8906 50.0925 20.509C47.8358 22.6481 44.2206 21.3056 41.8849 20.2444L41.8794 22.5479C44.4084 23.7093 47.6071 24.0074 50.4437 23.3807C52.3901 22.9378 54.5707 21.183 54.9191 19.0188C55.2757 16.8853 54.832 15.4898 53.4573 14.2977H53.4627ZM87.8287 22.3724L87.2652 21.2777C86.0565 18.9687 85.0901 17.0357 84.0311 14.5317C84.1427 14.4509 84.1182 14.4899 84.434 14.3339C86.1191 13.5122 87.2352 12.0221 87.2053 9.44844C87.1263 6.28988 84.3033 4.72452 81.8397 4.72731H72.6112V23.3445H77.2499V15.6514H79.8878C80.7671 17.1527 82.5584 21.4198 82.8388 22.0911L83.3859 23.3445H88.3323L87.8858 22.4782C87.8668 22.4448 87.8505 22.4086 87.8314 22.3724H87.8287ZM82.1092 12.3758C81.0203 13.7128 78.769 13.6153 77.2091 13.6097V6.78845C77.2091 6.78845 81.1727 6.18125 82.2644 8.13098C82.8279 9.22283 82.8959 11.2756 82.1092 12.3758ZM140.981 4.44599C139.775 4.43763 131.976 4.56854 131.943 13.9635C131.943 23.2915 139.644 23.662 140.981 23.6508C142.312 23.6592 150.022 23.2888 150 13.9635C149.986 4.56854 142.195 4.43763 140.984 4.44599H140.981ZM141.011 21.0549H140.943C140.437 21.0549 136.71 21.2165 136.734 13.6042C136.764 6.54334 140.388 6.74389 140.984 6.74389C141.583 6.74389 145.201 6.54334 145.233 13.6042C145.26 21.2165 141.528 21.0549 141.011 21.0549ZM115.245 14.2949C113.14 12.4287 110.584 11.8438 108.782 10.5793C107.516 9.58214 107.709 8.29253 108.352 7.5962C109.868 5.86651 113.031 6.68261 113.766 6.85809C114.698 7.1394 115.198 7.43743 116.089 7.84409V5.50999C112.318 4.38471 106.278 3.30957 103.896 7.19511C103.022 8.79389 102.793 11.6934 105.314 13.3785C107.854 15.4453 112.024 16.4341 112.541 18.1025C112.86 19.0133 112.476 19.8879 111.877 20.5062C109.623 22.6453 106.005 21.3028 103.67 20.2416L103.664 22.5451C106.193 23.7066 109.392 24.0046 112.228 23.3779C114.175 22.935 116.355 21.1803 116.707 19.0161C117.063 16.8825 116.619 15.487 115.245 14.2949ZM129.373 14.2949C127.274 12.4287 124.715 11.8438 122.924 10.5793C121.653 9.58214 121.843 8.29253 122.48 7.5962C123.994 5.86651 127.155 6.68261 127.895 6.85809C128.832 7.1394 129.335 7.43743 130.223 7.84409V5.50999C126.441 4.38471 120.406 3.30957 118.027 7.19511C117.142 8.79389 116.913 11.6934 119.445 13.3785C121.993 15.4453 126.161 16.4341 126.667 18.1025C126.994 19.0133 126.618 19.8879 126 20.5062C123.755 22.6453 120.134 21.3028 117.806 20.2416L117.79 22.5451C120.324 23.7066 123.52 24.0046 126.362 23.3779C128.32 22.935 130.489 21.1803 130.854 19.0161C131.194 16.8825 130.753 15.487 129.373 14.2949ZM89.8622 23.3417H102.311V21.2582C99.9128 21.3195 96.9183 21.7067 94.4683 21.4616V14.7768C96.4556 14.6682 98.8784 14.7044 100.735 14.8798V12.6711C98.8376 12.9162 96.4746 12.8967 94.4629 12.7686C94.4629 12.373 94.4683 6.61855 94.4683 6.61855C96.9183 6.35951 99.9128 6.7606 102.311 6.80795V4.72452H89.8622V23.3417Z" fill="white"/>
</svg>
